<svg width="50" height="50" viewBox="0 0 50 50" fill="none" xmlns="http://www.w3.org/2000/svg">
<mask id="path-2-inside-1_59_18" fill="white">
<path d="M28.2025 18.1712C26.9625 18.1712 26.61 18.7213 26.61 19.9338V21.935H29.9081L29.5831 25.1769H26.6094V35H22.6625V25.1762H20V21.9344H22.6638V19.9894C22.6638 16.7188 23.975 15 27.6531 15C28.4425 15 29.3869 15.0625 29.9506 15.1412V18.185"/>
</mask>
<path d="M26.61 21.935H25.61V22.935H26.61V21.935ZM29.9081 21.935L30.9031 22.0348L31.0134 20.935H29.9081V21.935ZM29.5831 25.1769V26.1769H30.4879L30.5781 25.2766L29.5831 25.1769ZM26.6094 25.1769V24.1769H25.6094V25.1769H26.6094ZM26.6094 35V36H27.6094V35H26.6094ZM22.6625 35H21.6625V36H22.6625V35ZM22.6625 25.1762H23.6625V24.1762H22.6625V25.1762ZM20 25.1762H19V26.1762H20V25.1762ZM20 21.9344V20.9344H19V21.9344H20ZM22.6638 21.9344V22.9344H23.6638V21.9344H22.6638ZM29.9506 15.1412H30.9506V14.2712L30.089 14.1509L29.9506 15.1412ZM28.2025 17.1712C27.4644 17.1712 26.6993 17.3319 26.176 17.9541C25.6912 18.5305 25.61 19.2858 25.61 19.9338H27.61C27.61 19.6722 27.6297 19.4951 27.6577 19.3766C27.6845 19.263 27.7112 19.2359 27.7065 19.2415C27.6694 19.2856 27.7006 19.1712 28.2025 19.1712V17.1712ZM25.61 19.9338V21.935H27.61V19.9338H25.61ZM26.61 22.935H29.9081V20.935H26.61V22.935ZM28.9131 21.8352L28.5881 25.0771L30.5781 25.2766L30.9031 22.0348L28.9131 21.8352ZM29.5831 24.1769H26.6094V26.1769H29.5831V24.1769ZM25.6094 25.1769V35H27.6094V25.1769H25.6094ZM26.6094 34H22.6625V36H26.6094V34ZM23.6625 35V25.1762H21.6625V35H23.6625ZM22.6625 24.1762H20V26.1762H22.6625V24.1762ZM21 25.1762V21.9344H19V25.1762H21ZM20 22.9344H22.6638V20.9344H20V22.9344ZM23.6638 21.9344V19.9894H21.6638V21.9344H23.6638ZM23.6638 19.9894C23.6638 18.4572 23.9761 17.5192 24.508 16.9528C25.0279 16.3993 25.9491 16 27.6531 16V14C25.679 14 24.1055 14.46 23.0502 15.5836C22.007 16.6943 21.6638 18.2509 21.6638 19.9894H23.6638ZM27.6531 16C28.4055 16 29.3027 16.0605 29.8123 16.1316L30.089 14.1509C29.471 14.0645 28.4795 14 27.6531 14V16ZM28.9506 15.1412V18.185H30.9506V15.1412H28.9506Z" fill="white" mask="url(#path-2-inside-1_59_18)"/>
<rect x="0.5" y="0.5" width="49" height="49" rx="24.5" stroke="white"/>
</svg>
