<svg width="37" height="33" viewBox="0 0 37 33" fill="none" xmlns="http://www.w3.org/2000/svg">
<path d="M32.3738 4.74364C31.5704 3.94091 30.6166 3.30426 29.5666 2.86991C28.5168 2.43556 27.3916 2.21191 26.2551 2.21191C25.1188 2.21191 23.9934 2.43556 22.9436 2.86991C21.8938 3.30426 20.9398 3.94091 20.1366 4.74364L18.4692 6.40841L16.802 4.74364C15.1792 3.12314 12.9782 2.21279 10.6833 2.21279C8.38849 2.21279 6.18751 3.12314 4.56474 4.74364C2.94196 6.36396 2.03021 8.56179 2.03021 10.8536C2.03021 13.1452 2.94196 15.343 4.56474 16.9635L6.23196 18.6283L18.4692 30.8482L30.7066 18.6283L32.3738 16.9635C33.1776 16.1612 33.8151 15.2086 34.2502 14.1604C34.6852 13.112 34.909 11.9883 34.909 10.8536C34.909 9.71871 34.6852 8.59504 34.2502 7.54661C33.8151 6.49836 33.1776 5.54584 32.3738 4.74364Z" stroke="white" stroke-width="3.5" stroke-linecap="round" stroke-linejoin="round"/>
</svg>
