<svg width="50" height="50" viewBox="0 0 50 50" fill="none" xmlns="http://www.w3.org/2000/svg">
<path d="M25.0045 19.8723C22.1661 19.8723 19.8767 22.1617 19.8767 25C19.8767 27.8383 22.1661 30.1277 25.0045 30.1277C27.8428 30.1277 30.1322 27.8383 30.1322 25C30.1322 22.1617 27.8428 19.8723 25.0045 19.8723ZM25.0045 28.3337C23.1703 28.3337 21.6708 26.8387 21.6708 25C21.6708 23.1613 23.1658 21.6663 25.0045 21.6663C26.8431 21.6663 28.3382 23.1613 28.3382 25C28.3382 26.8387 26.8387 28.3337 25.0045 28.3337ZM31.538 19.6625C31.538 20.3275 31.0025 20.8585 30.342 20.8585C29.677 20.8585 29.1459 20.323 29.1459 19.6625C29.1459 19.002 29.6815 18.4665 30.342 18.4665C31.0025 18.4665 31.538 19.002 31.538 19.6625ZM34.9342 20.8764C34.8583 19.2742 34.4924 17.8551 33.3186 16.6858C32.1494 15.5166 30.7302 15.1506 29.1281 15.0703C27.4768 14.9766 22.5276 14.9766 20.8764 15.0703C19.2787 15.1462 17.8595 15.5121 16.6858 16.6814C15.5121 17.8506 15.1506 19.2698 15.0703 20.8719C14.9766 22.5232 14.9766 27.4724 15.0703 29.1236C15.1462 30.7258 15.5121 32.1449 16.6858 33.3142C17.8595 34.4834 19.2742 34.8494 20.8764 34.9297C22.5276 35.0234 27.4768 35.0234 29.1281 34.9297C30.7302 34.8538 32.1494 34.4879 33.3186 33.3142C34.4879 32.1449 34.8538 30.7258 34.9342 29.1236C35.0279 27.4724 35.0279 22.5276 34.9342 20.8764ZM32.801 30.8953C32.4529 31.7701 31.779 32.4439 30.8998 32.7965C29.5833 33.3186 26.4593 33.1982 25.0045 33.1982C23.5496 33.1982 20.4212 33.3142 19.1091 32.7965C18.2344 32.4484 17.5605 31.7745 17.208 30.8953C16.6858 29.5788 16.8063 26.4549 16.8063 25C16.8063 23.5451 16.6903 20.4167 17.208 19.1047C17.5561 18.2299 18.2299 17.5561 19.1091 17.2035C20.4256 16.6814 23.5496 16.8019 25.0045 16.8019C26.4593 16.8019 29.5878 16.6858 30.8998 17.2035C31.7745 17.5516 32.4484 18.2255 32.801 19.1047C33.3231 20.4212 33.2026 23.5451 33.2026 25C33.2026 26.4549 33.3231 29.5833 32.801 30.8953Z" fill="white"/>
<rect x="0.5" y="0.5" width="49" height="49" rx="24.5" stroke="white"/>
</svg>
