<svg width="50" height="50" viewBox="0 0 50 50" fill="none" xmlns="http://www.w3.org/2000/svg">
<mask id="path-2-inside-1_59_20" fill="white">
<path d="M20.7406 35C30.029 35 35.1093 27.3046 35.1093 20.6314C35.1093 20.4127 35.1093 20.1951 35.0946 19.9775C36.0828 19.263 36.9359 18.3782 37.614 17.3646C36.6924 17.773 35.7147 18.0409 34.7135 18.1592C35.7677 17.5281 36.5567 16.5355 36.9337 15.3661C35.9424 15.9543 34.8579 16.3688 33.7269 16.5918C32.9655 15.7822 31.9585 15.2461 30.8618 15.0665C29.765 14.8868 28.6396 15.0737 27.6597 15.5981C26.6798 16.1225 25.9001 16.9553 25.4411 17.9675C24.9822 18.9797 24.8697 20.115 25.121 21.1976C23.1132 21.0969 21.149 20.5751 19.356 19.6661C17.563 18.7571 15.9811 17.4812 14.7132 15.9212C14.0674 17.0329 13.8696 18.349 14.16 19.6014C14.4505 20.8539 15.2074 21.9485 16.2766 22.6625C15.4729 22.6387 14.6868 22.4219 13.9846 22.0304V22.0944C13.9849 23.2603 14.3885 24.3903 15.1269 25.2925C15.8654 26.1948 16.8932 26.8139 18.0361 27.0448C17.2926 27.2475 16.5125 27.2772 15.7558 27.1314C16.0785 28.1348 16.7068 29.0123 17.5527 29.6411C18.3986 30.2699 19.42 30.6186 20.4738 30.6384C18.6856 32.0438 16.4765 32.8067 14.2021 32.8044C13.8004 32.8037 13.3989 32.7793 13 32.7316C15.3094 34.2136 17.9966 34.9997 20.7406 34.9961"/>
</mask>
<path d="M35.0946 19.9775L34.5086 19.1672L34.0595 19.492L34.0968 20.045L35.0946 19.9775ZM37.614 17.3646L38.4452 17.9207L40.3643 15.0522L37.2089 16.4504L37.614 17.3646ZM34.7135 18.1592L34.1999 17.3012L34.8309 19.1523L34.7135 18.1592ZM36.9337 15.3661L37.8855 15.6729L38.6964 13.1574L36.4234 14.5061L36.9337 15.3661ZM33.7269 16.5918L32.9985 17.2769L33.3775 17.6799L33.9204 17.5729L33.7269 16.5918ZM25.121 21.1976L25.0709 22.1963L26.3948 22.2627L26.0951 20.9715L25.121 21.1976ZM14.7132 15.9212L15.4892 15.2905L14.5758 14.1668L13.8485 15.4189L14.7132 15.9212ZM16.2766 22.6625L16.2469 23.6621L19.7286 23.7653L16.8319 21.8309L16.2766 22.6625ZM13.9846 22.0304L14.4715 21.157L12.9846 20.3281V22.0304H13.9846ZM13.9846 22.0944H12.9846L12.9846 22.0946L13.9846 22.0944ZM18.0361 27.0448L18.2992 28.0095L18.2341 26.0646L18.0361 27.0448ZM15.7558 27.1314L15.945 26.1494L14.2869 25.8301L14.8038 27.4375L15.7558 27.1314ZM20.4738 30.6384L21.0917 31.4247L23.2973 29.6913L20.4926 29.6386L20.4738 30.6384ZM14.2021 32.8044L14.2002 33.8044L14.2011 33.8044L14.2021 32.8044ZM13 32.7316L13.1189 31.7387L12.4599 33.5732L13 32.7316ZM20.7406 36C30.6961 36 36.1093 27.7347 36.1093 20.6314H34.1093C34.1093 26.8746 29.3619 34 20.7406 34V36ZM36.1093 20.6314C36.1093 20.4183 36.1097 20.167 36.0923 19.9101L34.0968 20.045C34.1089 20.2233 34.1093 20.4071 34.1093 20.6314H36.1093ZM35.6805 20.7879C36.7649 20.0038 37.7011 19.0329 38.4452 17.9207L36.7829 16.8086C36.1708 17.7235 35.4007 18.5222 34.5086 19.1672L35.6805 20.7879ZM37.2089 16.4504C36.3787 16.8182 35.498 17.0595 34.5962 17.1661L34.8309 19.1523C35.9314 19.0222 37.0061 18.7278 38.0192 18.2789L37.2089 16.4504ZM35.2272 19.0172C36.4894 18.2615 37.4341 17.0731 37.8855 15.6729L35.9819 15.0593C35.6793 15.9979 35.046 16.7946 34.1999 17.3012L35.2272 19.0172ZM36.4234 14.5061C35.53 15.0362 34.5527 15.4097 33.5335 15.6107L33.9204 17.5729C35.163 17.3279 36.3547 16.8724 37.444 16.2261L36.4234 14.5061ZM34.4554 15.9067C33.5434 14.9369 32.3371 14.2948 31.0234 14.0796L30.7001 16.0533C31.5799 16.1974 32.3877 16.6274 32.9985 17.2769L34.4554 15.9067ZM31.0234 14.0796C29.7096 13.8644 28.3616 14.0883 27.1878 14.7164L28.1315 16.4798C28.9176 16.0591 29.8203 15.9092 30.7001 16.0533L31.0234 14.0796ZM27.1878 14.7164C26.0141 15.3446 25.0801 16.3421 24.5304 17.5546L26.3519 18.3804C26.72 17.5685 27.3455 16.9005 28.1315 16.4798L27.1878 14.7164ZM24.5304 17.5546C23.9807 18.767 23.8459 20.1269 24.1469 21.4237L26.0951 20.9715C25.8935 20.103 25.9838 19.1924 26.3519 18.3804L24.5304 17.5546ZM25.171 20.1988C23.3033 20.1052 21.4762 19.6198 19.8082 18.7742L18.9038 20.5581C20.8219 21.5305 22.9231 22.0886 25.0709 22.1963L25.171 20.1988ZM19.8082 18.7742C18.1402 17.9286 16.6687 16.7417 15.4892 15.2905L13.9372 16.552C15.2936 18.2208 16.9857 19.5857 18.9038 20.5581L19.8082 18.7742ZM13.8485 15.4189C13.0749 16.7506 12.838 18.3271 13.1859 19.8273L15.1342 19.3755C14.9012 18.3709 15.0599 17.3153 15.5779 16.4235L13.8485 15.4189ZM13.1859 19.8273C13.5338 21.3276 14.4405 22.6388 15.7212 23.4941L16.8319 21.8309C15.9743 21.2582 15.3672 20.3801 15.1342 19.3755L13.1859 19.8273ZM16.3062 21.6629C15.6629 21.6439 15.0336 21.4703 14.4715 21.157L13.4977 22.9039C14.34 23.3734 15.283 23.6335 16.2469 23.6621L16.3062 21.6629ZM12.9846 22.0304V22.0944H14.9846V22.0304H12.9846ZM12.9846 22.0946C12.9849 23.4914 13.4684 24.845 14.3531 25.9259L15.9008 24.6592C15.3085 23.9355 14.9848 23.0292 14.9846 22.0941L12.9846 22.0946ZM14.3531 25.9259C15.2377 27.0068 16.469 27.7484 17.8381 28.025L18.2341 26.0646C17.3174 25.8794 16.4931 25.3829 15.9008 24.6592L14.3531 25.9259ZM17.773 26.08C17.1769 26.2425 16.5516 26.2663 15.945 26.1494L15.5667 28.1133C16.4735 28.288 17.4082 28.2525 18.2992 28.0095L17.773 26.08ZM14.8038 27.4375C15.1903 28.6395 15.9429 29.6905 16.9561 30.4437L18.1493 28.8386C17.4706 28.3341 16.9667 27.6302 16.7078 26.8252L14.8038 27.4375ZM16.9561 30.4437C17.9694 31.1969 19.1927 31.6145 20.455 31.6382L20.4926 29.6386C19.6472 29.6227 18.8279 29.343 18.1493 28.8386L16.9561 30.4437ZM19.8559 29.8522C18.2441 31.1189 16.2531 31.8065 14.2032 31.8044L14.2011 33.8044C16.7 33.807 19.127 32.9687 21.0917 31.4247L19.8559 29.8522ZM14.2041 31.8044C13.8414 31.8037 13.479 31.7818 13.1189 31.7387L12.8811 33.7245C13.3189 33.7769 13.7593 33.8036 14.2002 33.8044L14.2041 31.8044ZM12.4599 33.5732C14.9309 35.1589 17.806 36 20.742 35.9961L20.7393 33.9961C18.1872 33.9995 15.688 33.2683 13.5401 31.89L12.4599 33.5732Z" fill="white" mask="url(#path-2-inside-1_59_20)"/>
<rect x="0.5" y="0.5" width="49" height="49" rx="24.5" stroke="white"/>
</svg>
