<svg width="50" height="50" viewBox="0 0 50 50" fill="none" xmlns="http://www.w3.org/2000/svg">
<g clip-path="url(#clip0_59_14)">
<path d="M37.5 25.0004L37.5 25.0013L37.5 25.0024L37.5 25.0111L37.4999 25.0458C37.4997 25.0766 37.4995 25.1224 37.4989 25.1815C37.4979 25.2997 37.4958 25.4713 37.4915 25.6837C37.483 26.1088 37.4659 26.6962 37.4319 27.3455C37.363 28.6596 37.2266 30.1748 36.9671 31.1267L36.967 31.1273C36.8402 31.5945 36.5934 32.0205 36.2511 32.3628C35.9088 32.7051 35.4829 32.9519 35.0156 33.0786L35.0149 33.0788C34.5629 33.2021 33.7221 33.3033 32.6722 33.381C31.6367 33.4577 30.4396 33.5091 29.3009 33.5434C28.163 33.5777 27.0874 33.5949 26.296 33.6035C25.9004 33.6078 25.5761 33.6099 25.3508 33.611C25.2381 33.6115 25.1503 33.6118 25.0906 33.6119L25.0228 33.6121L25.0056 33.6121L25.0013 33.6121H25.0003H25.0001L25 34.1121L24.9999 33.6121H24.9997H24.9987L24.9944 33.6121L24.9772 33.6121L24.9094 33.6119C24.8497 33.6118 24.7619 33.6115 24.6492 33.611C24.4239 33.6099 24.0996 33.6078 23.704 33.6035C22.9127 33.5949 21.8371 33.5777 20.6992 33.5434C19.5605 33.509 18.3635 33.4576 17.328 33.3809C16.2782 33.303 15.4375 33.2018 14.9856 33.0784L14.9848 33.0782C14.5176 32.9515 14.0916 32.7047 13.7493 32.3624C13.407 32.0201 13.1602 31.5941 13.0334 31.1269C12.7735 30.1662 12.6371 28.6506 12.5682 27.3392C12.5341 26.6909 12.517 26.1051 12.5085 25.6813C12.5042 25.4696 12.5021 25.2986 12.5011 25.1808C12.5005 25.1219 12.5003 25.0763 12.5001 25.0457L12.5 25.011L12.5 25.0024L12.5 25.0004L12.5 24.9999V24.9999V24.9999V24.9998L12.5 24.9994L12.5 24.9973L12.5 24.9887L12.5001 24.954C12.5003 24.9234 12.5005 24.8778 12.501 24.8189C12.5021 24.7011 12.5041 24.5301 12.5083 24.3184C12.5165 23.8948 12.5331 23.3093 12.5661 22.6619C12.633 21.3528 12.7652 19.8413 13.0172 18.8877C13.144 18.421 13.3907 17.9956 13.7326 17.6536C14.075 17.3113 14.5009 17.0645 14.9681 16.9378L14.9689 16.9376C15.4213 16.8141 16.2624 16.7119 17.3123 16.6326C18.3479 16.5543 19.545 16.5009 20.6838 16.4645C21.8217 16.4281 22.8973 16.4089 23.6887 16.3988C24.0843 16.3938 24.4087 16.391 24.634 16.3895C24.7466 16.3887 24.8345 16.3883 24.8941 16.388L24.9619 16.3878L24.9791 16.3877L24.9834 16.3877L24.9838 16.3877H24.9841L24.9851 16.3877L24.9894 16.3877L25.0066 16.3877L25.0744 16.3878C25.134 16.388 25.2219 16.3882 25.3345 16.3888C25.5598 16.3898 25.8841 16.392 26.2797 16.3963C27.071 16.4049 28.1465 16.422 29.2844 16.4564C30.423 16.4907 31.62 16.5421 32.6554 16.6189C33.7052 16.6967 34.5459 16.7979 34.9977 16.9213L34.9985 16.9215C35.4658 17.0483 35.8917 17.2951 36.2341 17.6374C36.5764 17.9797 36.8232 18.4057 36.9499 18.8729C37.2102 19.8344 37.3507 21.3507 37.4237 22.6621C37.4599 23.3105 37.4789 23.8964 37.489 24.3202C37.494 24.532 37.4968 24.703 37.4983 24.8209C37.499 24.8798 37.4995 24.9253 37.4997 24.956L37.4999 24.9907L37.5 24.9992L37.5 24.9999V24.9999V25.0004Z" stroke="white"/>
<path d="M22.8964 21.9621L28.1409 24.9996L22.8967 28.0371L22.8964 21.9621Z" stroke="white"/>
</g>
<rect x="0.5" y="0.5" width="49" height="49" rx="24.5" stroke="white"/>
<defs>
<clipPath id="clip0_59_14">
<rect width="26" height="20" fill="white" transform="translate(12 15)"/>
</clipPath>
</defs>
</svg>
